<?xml version="1.0" encoding="UTF-8"?>
<svg version="1.1" xmlns="http://www.w3.org/2000/svg" width="500" height="500">
<path d="M0 0 C2.69407427 2.41689788 4.2670893 5.00164855 6.00390625 8.1640625 C6.57431641 9.19466797 7.14472656 10.22527344 7.73242188 11.28710938 C8.63831055 12.93936523 8.63831055 12.93936523 9.5625 14.625 C10.83319427 16.92006934 12.10533282 19.21433961 13.37890625 21.5078125 C14.31114014 23.18665527 14.31114014 23.18665527 15.26220703 24.89941406 C17.44963444 28.80224184 19.70751784 32.65824283 22 36.5 C26.66327594 44.33457397 31.09440284 52.29277348 35.52929688 60.25830078 C40.31281127 68.82681639 45.22351842 77.31557783 50.20605469 85.76977539 C61 104.12495341 61 104.12495341 61 107 C21.07 107 -18.86 107 -60 107 C-59.07134934 103.28539734 -57.95881328 100.85541364 -56.11328125 97.546875 C-55.51185303 96.46519043 -54.9104248 95.38350586 -54.29077148 94.26904297 C-53.63159664 93.09588871 -52.97216613 91.92287808 -52.3125 90.75 C-51.63145072 89.5314916 -50.95054448 88.31290324 -50.26977539 87.09423828 C-45.35055345 78.30974327 -40.30393964 69.60273155 -35.20239258 60.92285156 C-31.04263335 53.83191452 -26.99738618 46.68357913 -23 39.5 C-18.16989065 30.82345178 -13.25592672 22.20140654 -8.25 13.625 C-7.65316406 12.60212891 -7.05632812 11.57925781 -6.44140625 10.52539062 C-2.28019663 3.42029494 -2.28019663 3.42029494 0 0 Z " fill="#FEFEFE" transform="translate(199,165)"/>
<path d="M0 0 C0.66 0 1.32 0 2 0 C3.71120766 2.88243423 5.38951872 5.78273865 7.0625 8.6875 C7.54783203 9.50412109 8.03316406 10.32074219 8.53320312 11.16210938 C8.98759766 11.95810547 9.44199219 12.75410156 9.91015625 13.57421875 C10.54642944 14.66609497 10.54642944 14.66609497 11.19555664 15.7800293 C12.2368891 18.65372765 11.90950628 20.09938231 11 23 C9.82348633 25.48168945 9.82348633 25.48168945 8.33203125 28.11328125 C7.49768555 29.59538086 7.49768555 29.59538086 6.64648438 31.10742188 C6.04126953 32.16509766 5.43605469 33.22277344 4.8125 34.3125 C4.18537109 35.42044922 3.55824219 36.52839844 2.91210938 37.66992188 C-1.89766033 46.14107472 -6.80318013 54.55596414 -11.73583984 62.95605469 C-16.59122657 71.24269008 -21.29804882 79.60760691 -25.94335938 88.01367188 C-30.45126355 96.13666324 -35.21014969 104.01691615 -40 112 C-5.02 112 29.96 112 66 112 C76 130 76 130 76 132 C26.5 132 -23 132 -74 132 C-72.56386092 127.69158276 -71.47293907 124.78934128 -69.234375 121.04296875 C-68.68136719 120.10839844 -68.12835938 119.17382812 -67.55859375 118.2109375 C-66.96175781 117.21320313 -66.36492187 116.21546875 -65.75 115.1875 C-60.72263435 106.68365376 -55.79726527 98.13575698 -51 89.5 C-45.86447161 80.27025844 -40.59786397 71.12761208 -35.25 62.01953125 C-30.48020341 53.8746777 -25.86476465 45.64967822 -21.27636719 37.40161133 C-16.44451151 28.73851153 -11.47117329 20.16279888 -6.44140625 11.61328125 C-5.88839844 10.67226562 -5.33539063 9.73125 -4.765625 8.76171875 C-4.27868164 7.93631592 -3.79173828 7.11091309 -3.29003906 6.26049805 C-2.11650345 4.20414562 -1.03445976 2.12906964 0 0 Z " fill="#FEFEFE" transform="translate(161,170)"/>
<path d="M0 0 C0.66 0.66 1.32 1.32 2 2 C2.33 1.34 2.66 0.68 3 0 C5.97 0 8.94 0 12 0 C12.0992963 4.58978038 12.17166748 9.17892788 12.21972656 13.76953125 C12.23977222 15.32921244 12.26701657 16.88881913 12.30175781 18.44824219 C12.35059126 20.69745314 12.37303815 22.9456659 12.390625 25.1953125 C12.41127014 25.8861795 12.43191528 26.57704651 12.45318604 27.28884888 C12.45549315 32.3305902 11.12458393 35.10331531 8 39 C4.13941042 42.40640257 0.38341077 42.4509822 -4.5625 42.2890625 C-8.90150112 41.77450147 -11.80194612 40.23936608 -14.8125 37.125 C-16.14097463 34.74772962 -16.62696132 32.68587846 -17 30 C-8.265625 29.49609375 -8.265625 29.49609375 -4 33 C-1.3015411 32.77802187 -1.3015411 32.77802187 1 32 C1.33 30.35 1.66 28.7 2 27 C1.43152344 27.33128906 0.86304688 27.66257812 0.27734375 28.00390625 C-3.53364 29.67080309 -7.05831716 29.0910015 -11 28 C-14.68531093 25.17720865 -16.84727374 22.50611175 -18 18 C-18.44719064 12.36539794 -18.19721016 8.85093956 -15 4 C-10.8463148 -0.78303144 -5.9847729 -0.91095658 0 0 Z M-6.8125 9.0625 C-8.71096021 12.15998772 -8.50468055 14.46723617 -8 18 C-5.6273026 20.00864359 -5.6273026 20.00864359 -3 21 C0.18234105 19.24545615 0.18234105 19.24545615 3 17 C2.71530797 11.97500306 2.71530797 11.97500306 0 8 C-2.77457104 7.64428576 -4.37896796 7.63594673 -6.8125 9.0625 Z " fill="#FDFDFD" transform="translate(353,249)"/>
<path d="M0 0 C2.97 -0.0825 5.94 -0.165 9 -0.25 C10.37865234 -0.30462402 10.37865234 -0.30462402 11.78515625 -0.36035156 C17.64107777 -0.43819615 22.17176906 0.56196535 27 4 C31.04104398 9.07720911 32.36411355 13.22616024 32.28125 19.5859375 C31.66027683 24.91595725 29.27327074 28.78884003 25.4375 32.4375 C21.96317434 34.66463184 19.36770591 35.12336118 15.33203125 35.09765625 C14.52741455 35.09515869 13.72279785 35.09266113 12.89379883 35.09008789 C11.36855591 35.07643188 11.36855591 35.07643188 9.8125 35.0625 C4.9553125 35.0315625 4.9553125 35.0315625 0 35 C0 23.45 0 11.9 0 0 Z M9 8 C9 14.27 9 20.54 9 27 C16.47515769 27.72336724 16.47515769 27.72336724 20 25.0625 C22.33198013 21.49165543 22.74267565 19.35493981 22.4765625 15.16015625 C21.65870267 11.45297192 20.13836313 10.02685952 17 8 C14.36 8 11.72 8 9 8 Z " fill="#FDFDFD" transform="translate(290,242)"/>
<path d="M0 0 C0.86625 0.01804688 1.7325 0.03609375 2.625 0.0546875 C3.800625 0.08949219 3.800625 0.08949219 5 0.125 C5.99 0.125 6.98 0.125 8 0.125 C11.3 0.125 14.6 0.125 18 0.125 C18 9.365 18 18.605 18 28.125 C14 28.125 10 28.125 6 28.125 C5.35546875 28.24359375 4.7109375 28.3621875 4.046875 28.484375 C-0.21784324 29.20966722 -2.37683458 29.42504261 -6.375 27.5 C-9.79627524 24.4045605 -11.74255229 21.84827609 -12.43359375 17.22265625 C-12.44174898 10.88604569 -12.37522746 6.87524696 -8 2.125 C-4.7192776 -0.06214826 -3.78850619 -0.10147784 0 0 Z M-1.875 9.75 C-3.42740875 13.02730735 -3.16026098 14.71673337 -2 18.125 C0.44309577 20.04244593 0.44309577 20.04244593 3 21.125 C5.6273026 20.13364359 5.6273026 20.13364359 8 18.125 C8.50468055 14.59223617 8.71096021 12.28498772 6.8125 9.1875 C3.50413691 7.24811474 1.04793553 7.2167892 -1.875 9.75 Z " fill="#FDFDFD" transform="translate(410,248.875)"/>
<path d="M0 0 C1.98 0 3.96 0 6 0 C6.14622803 0.54003662 6.29245605 1.08007324 6.44311523 1.63647461 C7.10443555 4.07110922 7.77089688 6.50430679 8.4375 8.9375 C8.66759766 9.78763672 8.89769531 10.63777344 9.13476562 11.51367188 C9.35712891 12.32255859 9.57949219 13.13144531 9.80859375 13.96484375 C10.01282959 14.7137085 10.21706543 15.46257324 10.42749023 16.23413086 C10.85391799 18.00543922 10.85391799 18.00543922 12 19 C12.14622803 18.45996338 12.29245605 17.91992676 12.44311523 17.36352539 C13.10443555 14.92889078 13.77089688 12.49569321 14.4375 10.0625 C14.66759766 9.21236328 14.89769531 8.36222656 15.13476562 7.48632812 C15.35712891 6.67744141 15.57949219 5.86855469 15.80859375 5.03515625 C16.11494751 3.91185913 16.11494751 3.91185913 16.42749023 2.76586914 C17 1 17 1 18 0 C19.98 0 21.96 0 24 0 C26.475 8.91 26.475 8.91 29 18 C31.24164241 14.63753639 32.01126918 11.7681514 33.0625 7.875 C34.89761571 1.10238429 34.89761571 1.10238429 36 0 C37.66617115 -0.04063832 39.33388095 -0.042721 41 0 C39.87087603 6.88765621 38.03493206 13.41814817 35.9375 20.0625 C35.6679248 20.92012939 35.39834961 21.77775879 35.12060547 22.66137695 C33.13133837 28.86866163 33.13133837 28.86866163 32 30 C30.33382885 30.04063832 28.66611905 30.042721 27 30 C24.53062327 23.7677635 22.6813917 17.48707154 21 11 C18.94822285 16.27599837 17.19495414 21.55002708 15.6484375 26.99609375 C15 29 15 29 14 30 C12.33382885 30.04063832 10.66611905 30.042721 9 30 C6.65094733 23.94748591 4.66259637 17.84680556 2.8125 11.625 C2.53986328 10.72394531 2.26722656 9.82289063 1.98632812 8.89453125 C1.72916016 8.03472656 1.47199219 7.17492187 1.20703125 6.2890625 C0.9747583 5.51256348 0.74248535 4.73606445 0.50317383 3.93603516 C0 2 0 2 0 0 Z " fill="#FDFDFD" transform="translate(341,198)"/>
<path d="M0 0 C2.61374292 1.93922862 2.94556379 2.83669136 4 6 C4.08209792 7.77313851 4.10746294 9.54920775 4.09765625 11.32421875 C4.09443359 12.35224609 4.09121094 13.38027344 4.08789062 14.43945312 C4.07951172 15.51130859 4.07113281 16.58316406 4.0625 17.6875 C4.05798828 18.77095703 4.05347656 19.85441406 4.04882812 20.97070312 C4.03703743 23.64719085 4.02058063 26.32356777 4 29 C2.00045254 29.04254356 -0.00041636 29.04080783 -2 29 C-2.33 28.67 -2.66 28.34 -3 28 C-3.99 28.66 -4.98 29.32 -6 30 C-11.29895331 30.42733494 -14.73394141 30.51322472 -19 27 C-21.13272462 24.28562321 -20.99745956 22.95173167 -20.8125 19.4375 C-19.77060899 15.02949959 -19.77060899 15.02949959 -17 13 C-13.64453125 12.05078125 -13.64453125 12.05078125 -9.8125 11.3125 C-7.90404297 10.93544922 -7.90404297 10.93544922 -5.95703125 10.55078125 C-4.98121094 10.36902344 -4.00539063 10.18726563 -3 10 C-3 8.35 -3 6.7 -3 5 C-7.1849342 4.01611828 -7.1849342 4.01611828 -11.3125 4.8125 C-13.15097822 5.90687325 -13.15097822 5.90687325 -14 8 C-15.98 7.34 -17.96 6.68 -20 6 C-18.86310687 3.19566361 -17.75636366 1.42122692 -15.078125 -0.0703125 C-9.35777015 -2.25982763 -5.71249412 -2.16680812 0 0 Z M-8.5625 15.875 C-9.74005859 16.11863281 -9.74005859 16.11863281 -10.94140625 16.3671875 C-13.19678401 16.88470173 -13.19678401 16.88470173 -15 19 C-14.71016731 22.30683466 -14.71016731 22.30683466 -13 25 C-9.50110134 25.26406782 -6.85900685 25.38429254 -3.625 23.9375 C-1.28994873 21.15340041 -1.26785608 18.54909302 -1 15 C-3.72466698 15 -5.91413592 15.30780506 -8.5625 15.875 Z " fill="#FDFDFD" transform="translate(336,199)"/>
<path d="M0 0 C3.3 0 6.6 0 10 0 C10 2.31 10 4.62 10 7 C11.65 7 13.3 7 15 7 C15 9.64 15 12.28 15 15 C13.35 15 11.7 15 10 15 C10 18.96 10 22.92 10 27 C11.65 27 13.3 27 15 27 C15 29.64 15 32.28 15 35 C10.43381483 35.35813217 7.07094368 35.60240582 3 33.3125 C-0.3751154 29.41002282 -0.12268622 25.18295623 -0.0625 20.1875 C-0.05347656 19.21167969 -0.04445313 18.23585938 -0.03515625 17.23046875 C-0.02355469 16.49441406 -0.01195312 15.75835937 0 15 C-0.99 15 -1.98 15 -3 15 C-3 12.36 -3 9.72 -3 7 C-2.01 7 -1.02 7 0 7 C0 4.69 0 2.38 0 0 Z " fill="#FEFEFE" transform="translate(382,242)"/>
<path d="M0 0 C1.98 0 3.96 0 6 0 C6.33 7.92 6.66 15.84 7 24 C14.24390903 24.69184908 14.24390903 24.69184908 16.96801758 22.80541992 C18.30008112 20.47501777 18.43047615 18.7942869 18.51171875 16.11328125 C18.54716797 15.17548828 18.58261719 14.23769531 18.61914062 13.27148438 C18.64169922 12.29501953 18.66425781 11.31855469 18.6875 10.3125 C18.72166016 9.32443359 18.75582031 8.33636719 18.79101562 7.31835938 C18.87350538 4.87901947 18.94265068 2.44003937 19 0 C20.98 0 22.96 0 25 0 C25 9.9 25 19.8 25 30 C23.02 30 21.04 30 19 30 C18.67 29.34 18.34 28.68 18 28 C17.01 28.7734375 17.01 28.7734375 16 29.5625 C12.04690388 31.45669189 9.13491808 31.41867482 5 30 C1.0279344 26.33347791 0.13547734 22.86833201 -0.11352539 17.59643555 C-0.10828857 16.784729 -0.10305176 15.97302246 -0.09765625 15.13671875 C-0.09443359 14.25048828 -0.09121094 13.36425781 -0.08789062 12.45117188 C-0.07951172 11.53916016 -0.07113281 10.62714844 -0.0625 9.6875 C-0.05798828 8.75615234 -0.05347656 7.82480469 -0.04882812 6.86523438 C-0.03709234 4.57675627 -0.02067363 2.28841192 0 0 Z " fill="#FEFEFE" transform="translate(383,198)"/>
<path d="M0 0 C2.97 0 5.94 0 9 0 C9 12.21 9 24.42 9 37 C6.03 37 3.06 37 0 37 C0 24.79 0 12.58 0 0 Z " fill="#FEFEFE" transform="translate(431,240)"/>
<path d="M0 0 C1.65 0 3.3 0 5 0 C5 11.55 5 23.1 5 35 C11.27 35 17.54 35 24 35 C24 36.65 24 38.3 24 40 C16.08 40 8.16 40 0 40 C0 26.8 0 13.6 0 0 Z " fill="#FDFDFD" transform="translate(291,188)"/>
<path d="M0 0 C3.3 0 6.6 0 10 0 C10 9.24 10 18.48 10 28 C6.7 28 3.4 28 0 28 C0 18.76 0 9.52 0 0 Z " fill="#FDFDFD" transform="translate(324,249)"/>
<path d="M0 0 C2.97 0 5.94 0 9 0 C9 9.24 9 18.48 9 28 C6.03 28 3.06 28 0 28 C0 18.76 0 9.52 0 0 Z " fill="#FDFDFD" transform="translate(369,249)"/>
<path d="M0 0 C1.875 1.1875 1.875 1.1875 3 3 C2.75546876 6.34192692 2.39456443 7.60543557 0 10 C-3.625 9.625 -3.625 9.625 -7 9 C-7.33 6.69 -7.66 4.38 -8 2 C-4.76746204 -0.15502531 -3.74849077 -0.46856135 0 0 Z " fill="#FDFDFD" transform="translate(376,237)"/>
<path d="M0 0 C3.0625 0.1875 3.0625 0.1875 5.0625 2.1875 C5.375 5.1875 5.375 5.1875 5.0625 8.1875 C1.84106724 10.33512184 0.8029533 10.748568 -2.9375 10.1875 C-4.875 8.5 -4.875 8.5 -5.9375 6.1875 C-4.28712217 0.2736461 -4.28712217 0.2736461 0 0 Z " fill="#FCFCFC" transform="translate(328.9375,236.8125)"/>
</svg>
