<?xml version="1.0" encoding="UTF-8"?>
<svg version="1.1" xmlns="http://www.w3.org/2000/svg" width="500" height="500">
<path d="M0 0 C2.77339447 2.47920705 4.40788797 5.20522701 6.23046875 8.43359375 C6.86017578 9.54283203 7.48988281 10.65207031 8.13867188 11.79492188 C8.82165334 13.00909279 9.50459493 14.22328612 10.1875 15.4375 C10.90247797 16.70016258 11.6179817 17.96252758 12.33398438 19.22460938 C13.82154145 21.84764562 15.30682413 24.47195003 16.79052734 27.09716797 C20.17255205 33.07685385 23.58783073 39.03747841 27 45 C28.32571495 47.3188998 29.65128488 49.63788158 30.9765625 51.95703125 C31.30538925 52.53238617 31.634216 53.10774109 31.9730072 53.70053101 C34.03539525 57.30978085 36.09537494 60.92039537 38.15374756 64.53193665 C39.55101248 66.98336175 40.94901432 69.43436611 42.34716797 71.88528442 C43.02779388 73.07870375 43.70813636 74.27228476 44.38818359 75.46603394 C47.6248645 81.14654742 50.87265211 86.81740736 54.2265625 92.4296875 C54.70174316 93.22544189 55.17692383 94.02119629 55.66650391 94.84106445 C56.52453663 96.27043826 57.38834679 97.69636809 58.25927734 99.11791992 C61 103.67399651 61 103.67399651 61 107 C21.07 107 -18.86 107 -60 107 C-59.13811589 102.69057947 -58.48914098 100.73521938 -56.33203125 97.140625 C-55.77580078 96.20283203 -55.21957031 95.26503906 -54.64648438 94.29882812 C-54.04126953 93.29271484 -53.43605469 92.28660156 -52.8125 91.25 C-51.52540766 89.0792718 -50.24031016 86.90735977 -48.95703125 84.734375 C-48.29783691 83.61869141 -47.63864258 82.50300781 -46.95947266 81.35351562 C-43.89649182 76.11141436 -40.94694739 70.80793247 -38 65.5 C-32.87286306 56.28476855 -27.6173276 47.1549323 -22.27416992 38.06347656 C-17.2286623 29.45388099 -12.35166385 20.75577986 -7.52929688 12.01953125 C-6.97951172 11.02824219 -6.42972656 10.03695312 -5.86328125 9.015625 C-5.38157471 8.14196289 -4.89986816 7.26830078 -4.40356445 6.36816406 C-3.06738936 4.1137027 -1.61474018 2.06147203 0 0 Z " fill="#000000" transform="translate(199,165)"/>
<path d="M0 0 C0.66 0 1.32 0 2 0 C4.31022527 2.72222108 6.11171358 5.78896668 8 8.8125 C8.56589844 9.62654297 9.13179688 10.44058594 9.71484375 11.27929688 C11.33475201 13.90701065 12.38981737 15.96843546 13 19 C11.76979662 23.16539175 9.4162599 26.42564565 7 30 C5.85505942 32.03447895 4.73046444 34.08052276 3.625 36.13671875 C-3.03556627 48.18899737 -9.79494284 60.16572126 -16.7746582 72.03710938 C-21.79242113 80.59048721 -26.64986453 89.22765692 -31.47094727 97.89306641 C-32.02065186 98.88097168 -32.57035645 99.86887695 -33.13671875 100.88671875 C-33.85927856 102.18935669 -33.85927856 102.18935669 -34.59643555 103.51831055 C-36.02212766 106.03912465 -37.50591099 108.51926823 -39 111 C-37.70675812 110.97477768 -36.41351624 110.94955536 -35.08108521 110.92356873 C-22.86986566 110.69658728 -10.66048783 110.55978495 1.55277824 110.51034451 C7.83172972 110.48205256 14.10707348 110.42245591 20.38476562 110.2902832 C26.44831422 110.16378784 32.50732248 110.12087751 38.57211685 110.13490486 C40.88076791 110.12574926 43.18950512 110.08690831 45.49712753 110.01739311 C63.1125372 109.51477118 63.1125372 109.51477118 67.98734283 113.71049881 C72.15947944 118.80649549 76 125.28217224 76 132 C26.5 132 -23 132 -74 132 C-72.49756887 127.4927066 -71.18644101 124.27771609 -68.8671875 120.2734375 C-68.23425781 119.17386719 -67.60132812 118.07429688 -66.94921875 116.94140625 C-66.25785576 115.75257901 -65.56644827 114.56377765 -64.875 113.375 C-64.15437198 112.12663437 -63.43433046 110.87793002 -62.71484375 109.62890625 C-61.22069053 107.03611824 -59.72403245 104.44480118 -58.22558594 101.85449219 C-54.79338022 95.91652691 -51.39869229 89.95719212 -48 84 C-46.66706242 81.66644045 -45.33353021 79.33322092 -44 77 C-43.33332238 75.83333959 -42.66665571 74.66667293 -42 73.5 C-28 49 -14 24.5 0 0 Z " fill="#000000" transform="translate(161,170)"/>
<path d="M0 0 C1.258125 0.33 2.51625 0.66 3.8125 1 C4.1425 0.67 4.4725 0.34 4.8125 0 C6.33178038 -0.07179964 7.85417482 -0.08392007 9.375 -0.0625 C10.20128906 -0.05347656 11.02757812 -0.04445312 11.87890625 -0.03515625 C12.51699219 -0.02355469 13.15507812 -0.01195312 13.8125 0 C13.88686755 4.6081187 13.94120394 9.21588514 13.97729492 13.82446289 C13.99234622 15.39093107 14.01279207 16.95735736 14.03881836 18.52368164 C14.07536433 20.78021606 14.09226261 23.03619153 14.10546875 25.29296875 C14.12095261 25.98899704 14.13643646 26.68502533 14.15238953 27.40214539 C14.15422639 32.75488129 12.73383679 35.75844041 9.3125 39.75 C5.33470037 43.06483303 -0.31855585 42.43228943 -5.1875 42 C-8.76367429 40.63455163 -11.94955904 39.18023189 -14.1875 36 C-14.875 32.8125 -14.875 32.8125 -15.1875 30 C-6.453125 29.49609375 -6.453125 29.49609375 -2.1875 33 C0.5109589 32.77802187 0.5109589 32.77802187 2.8125 32 C3.1425 30.35 3.4725 28.7 3.8125 27 C3.296875 27.33 2.78125 27.66 2.25 28 C-1.12593074 29.38499723 -3.56165116 29.37508781 -7.1875 29 C-11.17021878 27.08523136 -12.84948017 25.58590104 -15.0625 21.75 C-16.69586284 16.30545719 -17.00045969 12.2249423 -15 6.75 C-12.69814403 3.25752888 -10.29990116 0.74325226 -6.2890625 -0.66796875 C-3.85800295 -1.05205808 -2.34499819 -0.70393942 0 0 Z M-5 9.125 C-6.72251881 11.84476654 -6.51605599 13.84586249 -6.1875 17 C-5.1975 18.485 -5.1975 18.485 -4.1875 20 C-1.23003508 20.58345476 -1.23003508 20.58345476 1.8125 20 C3.91014165 18.48105194 3.91014165 18.48105194 4.8125 16 C4.59212372 12.32706204 4.44283454 10.63033454 1.8125 8 C-0.99734248 7.63976378 -2.56991919 7.61667398 -5 9.125 Z " fill="#010101" transform="translate(351.1875,249)"/>
<path d="M0 0 C3.135 -0.103125 6.27 -0.20625 9.5 -0.3125 C10.95696289 -0.38078003 10.95696289 -0.38078003 12.44335938 -0.45043945 C18.84637583 -0.55138204 23.09795423 0.8130814 28 5 C32.10479916 9.69808476 32.57675901 14.2786828 32.31640625 20.41796875 C31.69586469 25.48189432 29.74763734 28.52166422 26 31.8125 C22.25891151 34.54037703 19.83517534 35.1263387 15.33203125 35.09765625 C14.52741455 35.09515869 13.72279785 35.09266113 12.89379883 35.09008789 C11.36855591 35.07643188 11.36855591 35.07643188 9.8125 35.0625 C4.9553125 35.0315625 4.9553125 35.0315625 0 35 C0 23.45 0 11.9 0 0 Z M9 8 C9 14.27 9 20.54 9 27 C16.47515769 27.72336724 16.47515769 27.72336724 20 25.0625 C22.6601163 20.98919692 22.98443537 17.74480111 22 13 C20.12379387 10.49839182 18.76108697 9.38054348 16 8 C13.69 8 11.38 8 9 8 Z " fill="#010101" transform="translate(290,242)"/>
<path d="M0 0 C0.33 -0.33 0.66 -0.66 1 -1 C4.3 -1 7.6 -1 11 -1 C11 8.24 11 17.48 11 27 C7.04 27 3.08 27 -1 27 C-1.66 27.33 -2.32 27.66 -3 28 C-7.99379386 28.3768901 -11.05989069 28.19468322 -15 25 C-18.61242303 21.19231086 -19.31685859 18.09638332 -19.5 13 C-19.32197155 7.68552095 -18.59341964 4.90142704 -15 1 C-9.51610382 -2.65593079 -6.16507696 -2.05502565 0 0 Z M-8.875 8.625 C-10.38776998 11.81862551 -9.94757993 13.64702485 -9 17 C-7.11340125 19.30662599 -7.11340125 19.30662599 -4 19.3125 C-3.01 19.209375 -2.02 19.10625 -1 19 C1.31282587 15.53076119 1.42478586 14.07794425 1 10 C-0.06345052 8.01970318 -0.06345052 8.01970318 -2 7 C-5.18587424 6.44247201 -6.40561467 6.48486605 -8.875 8.625 Z " fill="#010101" transform="translate(417,250)"/>
<path d="M0 0 C1.98 0 3.96 0 6 0 C7.98 6.27 9.96 12.54 12 19 C13.60414105 13.12221498 13.60414105 13.12221498 15.20092773 7.24243164 C15.40145752 6.51403076 15.6019873 5.78562988 15.80859375 5.03515625 C16.11494751 3.91185913 16.11494751 3.91185913 16.42749023 2.76586914 C17 1 17 1 18 0 C19.98 0 21.96 0 24 0 C26.475 8.91 26.475 8.91 29 18 C31.28364999 14.57452501 32.13400707 11.24343863 33.125 7.3125 C33.30675781 6.61060547 33.48851562 5.90871094 33.67578125 5.18554688 C34.12227079 3.45833732 34.5618166 1.72933544 35 0 C36.98 0 38.96 0 41 0 C39.72977021 7.03264333 37.98783682 13.80124472 35.875 20.625 C35.59785156 21.53378906 35.32070313 22.44257813 35.03515625 23.37890625 C34.36102123 25.58727959 33.68260023 27.79423163 33 30 C31.02 30 29.04 30 27 30 C24.69557475 24.07433507 22.76463072 18.10737442 21 12 C18.98973944 15.58587018 17.97196209 19.30093646 16.875 23.25 C16.52179688 24.51328125 16.16859375 25.7765625 15.8046875 27.078125 C15.53914063 28.04234375 15.27359375 29.0065625 15 30 C13.02 30 11.04 30 9 30 C6.74060497 24.11743097 4.7119398 18.19535773 2.8125 12.1875 C2.53986328 11.34251953 2.26722656 10.49753906 1.98632812 9.62695312 C1.72916016 8.81548828 1.47199219 8.00402344 1.20703125 7.16796875 C0.9747583 6.43860107 0.74248535 5.7092334 0.50317383 4.95776367 C0 3 0 3 0 0 Z " fill="#010101" transform="translate(341,198)"/>
<path d="M0 0 C1.87384443 1.60308251 2.89558472 2.79116944 4 5 C4.08471364 6.81341842 4.10721083 8.62994161 4.09765625 10.4453125 C4.09443359 11.52167969 4.09121094 12.59804687 4.08789062 13.70703125 C4.07951172 14.83496094 4.07113281 15.96289062 4.0625 17.125 C4.05798828 18.26066406 4.05347656 19.39632812 4.04882812 20.56640625 C4.03701615 23.37765638 4.02054507 26.1888023 4 29 C1.98177083 28.96744792 -0.03645833 28.93489583 -2.0546875 28.90234375 C-4.08185404 28.87350758 -4.08185404 28.87350758 -6 30 C-10.44249756 30.53240148 -13.9610943 30.51945285 -18 28.5 C-20.69779251 25.12775937 -21.41847906 22.29581563 -21 18 C-19.04880495 14.26020949 -17.6320707 13.23851725 -13.6875 11.75 C-10.13213159 11.02687422 -6.60097764 10.44093604 -3 10 C-3.33 8.35 -3.66 6.7 -4 5 C-6.698065 4.00071667 -7.88010429 3.96375246 -10.6875 4.8125 C-13.13776085 5.78271865 -13.13776085 5.78271865 -14 8 C-16.4375 7.625 -16.4375 7.625 -19 7 C-19.33 6.34 -19.66 5.68 -20 5 C-17.87188188 1.76526045 -16.37596801 0.1695542 -12.8125 -1.4375 C-8.19726522 -2.11843628 -4.34746995 -1.72719252 0 0 Z M-7.9375 15.875 C-8.83339844 16.03742188 -9.72929687 16.19984375 -10.65234375 16.3671875 C-13.16861011 16.83613952 -13.16861011 16.83613952 -15 19 C-14.83492354 21.57540213 -14.83492354 21.57540213 -14 24 C-11.15916359 25.42041821 -9.14522722 25.31452272 -6 25 C-3.5 23.5 -3.5 23.5 -2 21 C-1.66551741 17.832168 -1.66551741 17.832168 -2 15 C-4.00053292 15 -5.97858606 15.50963585 -7.9375 15.875 Z " fill="#010101" transform="translate(336,199)"/>
<path d="M0 0 C3.3 0 6.6 0 10 0 C10 2.31 10 4.62 10 7 C11.65 7 13.3 7 15 7 C15 9.64 15 12.28 15 15 C13.35 15 11.7 15 10 15 C10 18.96 10 22.92 10 27 C11.65 27 13.3 27 15 27 C15 29.64 15 32.28 15 35 C5.91404508 35.62422591 5.91404508 35.62422591 2.4375 33.25 C-0.16202437 29.18117924 -0.11427963 25.51372629 -0.0625 20.75 C-0.05347656 19.67234375 -0.04445313 18.5946875 -0.03515625 17.484375 C-0.02355469 16.66453125 -0.01195312 15.8446875 0 15 C-0.99 15 -1.98 15 -3 15 C-3 12.36 -3 9.72 -3 7 C-2.01 7 -1.02 7 0 7 C0 4.69 0 2.38 0 0 Z " fill="#000000" transform="translate(382,242)"/>
<path d="M0 0 C1.98 0 3.96 0 6 0 C6.01981934 0.65597168 6.03963867 1.31194336 6.06005859 1.98779297 C6.15512507 4.95061069 6.26487752 7.91270532 6.375 10.875 C6.4059375 11.90753906 6.436875 12.94007813 6.46875 14.00390625 C6.50742187 14.99003906 6.54609375 15.97617188 6.5859375 16.9921875 C6.6173584 17.90339355 6.6487793 18.81459961 6.68115234 19.75341797 C6.79882511 22.19931186 6.79882511 22.19931186 9 24 C13.08397853 24.48531114 13.08397853 24.48531114 16.65942383 22.78588867 C18.3991905 20.46820643 18.42442016 18.99413461 18.51171875 16.11328125 C18.54716797 15.17548828 18.58261719 14.23769531 18.61914062 13.27148438 C18.64169922 12.29501953 18.66425781 11.31855469 18.6875 10.3125 C18.72166016 9.32443359 18.75582031 8.33636719 18.79101562 7.31835938 C18.87350538 4.87901947 18.94265068 2.44003937 19 0 C20.98 0 22.96 0 25 0 C25 9.9 25 19.8 25 30 C23.02 30 21.04 30 19 30 C18.67 29.34 18.34 28.68 18 28 C17.484375 28.495 16.96875 28.99 16.4375 29.5 C13.06236872 31.57700386 10.90199054 31.47919182 7 31 C3.51675899 29.06486611 2.27670929 27.73533819 0.87109375 24 C-0.38861503 19.22705498 -0.216756 14.46438767 -0.125 9.5625 C-0.11597656 8.64017578 -0.10695313 7.71785156 -0.09765625 6.76757812 C-0.0742766 4.51144191 -0.04150916 2.25586316 0 0 Z " fill="#000000" transform="translate(383,198)"/>
<path d="M0 0 C3.3 0 6.6 0 10 0 C10 12.21 10 24.42 10 37 C6.7 37 3.4 37 0 37 C0 24.79 0 12.58 0 0 Z " fill="#000000" transform="translate(431,240)"/>
<path d="M0 0 C1.65 0 3.3 0 5 0 C5 11.55 5 23.1 5 35 C11.27 35 17.54 35 24 35 C24 36.65 24 38.3 24 40 C16.08 40 8.16 40 0 40 C0 26.8 0 13.6 0 0 Z " fill="#000000" transform="translate(291,188)"/>
<path d="M0 0 C3.3 0 6.6 0 10 0 C10 9.24 10 18.48 10 28 C6.7 28 3.4 28 0 28 C0 18.76 0 9.52 0 0 Z " fill="#010101" transform="translate(324,249)"/>
<path d="M0 0 C2.97 0 5.94 0 9 0 C9 9.24 9 18.48 9 28 C6.03 28 3.06 28 0 28 C0 18.76 0 9.52 0 0 Z " fill="#000000" transform="translate(369,249)"/>
<path d="M0 0 C2 2 2 2 2.25 5 C2 8 2 8 0 10 C-3.1304173 10.33302312 -5.17898298 10.47671956 -7.9375 8.875 C-9 7 -9 7 -8.8125 3.875 C-8.544375 2.92625 -8.27625 1.9775 -8 1 C-5.23749964 -0.38125018 -3.05268901 -0.19079306 0 0 Z " fill="#010101" transform="translate(332,237)"/>
<path d="M0 0 C3.0625 0.3125 3.0625 0.3125 5 1.5 C6.0625 3.3125 6.0625 3.3125 5.875 5.875 C5.0625 8.3125 5.0625 8.3125 3.0625 10.3125 C-3.51442308 9.73557692 -3.51442308 9.73557692 -4.9375 8.3125 C-5.125 5.375 -5.125 5.375 -4.9375 2.3125 C-2.9375 0.3125 -2.9375 0.3125 0 0 Z " fill="#010101" transform="translate(372.9375,236.6875)"/>
</svg>
